PathFileType	4	(X/Y/Z)	c:/Users/goper/Files/vsCode/490R/osim_files/C08/C08_SSWS_02.trc
DataRate	CameraRate	NumFrames	NumMarkers	Units                	OrigDataRate	OrigDataStartFrame	OrigNumFrames
250.00	250.00	6	36	mm	250.0	1008	2686
                Frame#	Time	LPSIS			LASIS			LTH1			LTH2			LTH3			LTH4			LLFE			LMFE			LSH1			LSH2			LSH3			LSH4			LLMAL			LMMAL			LCAL			LMTP5			LTOE			LMTP1			RPSIS			RASIS			RTH1			RTH2			RTH3			RTH4			RLFE			RMFE			RSH1			RSH2			RSH3			RSH4			RLMAL			RMMAL			RCAL			RMTP1			RTOE			RMTP5		
		X1	Y1	Z1	X2	Y2	Z2	X3	Y3	Z3	X4	Y4	Z4	X5	Y5	Z5	X6	Y6	Z6	X7	Y7	Z7	X8	Y8	Z8	X9	Y9	Z9	X10	Y10	Z10	X11	Y11	Z11	X12	Y12	Z12	X13	Y13	Z13	X14	Y14	Z14	X15	Y15	Z15	X16	Y16	Z16	X17	Y17	Z17	X18	Y18	Z18	X19	Y19	Z19	X20	Y20	Z20	X21	Y21	Z21	X22	Y22	Z22	X23	Y23	Z23	X24	Y24	Z24	X25	Y25	Z25	X26	Y26	Z26	X27	Y27	Z27	X28	Y28	Z28	X29	Y29	Z29	X30	Y30	Z30	X31	Y31	Z31	X32	Y32	Z32	X33	Y33	Z33	X34	Y34	Z34	X35	Y35	Z35	X36	Y36	Z36

1008	4.02800	1581.52051	1040.66772	241.22902	1373.38696	1007.39905	308.37012	1401.19507	737.11700	387.23056	1380.81348	662.88776	366.55237	1361.82605	592.11353	360.34393	0.00000	0.00000	0.00000	1351.39331	543.56683	349.96619	1347.07056	535.09930	221.18156	1391.62048	410.84622	360.60562	1382.77417	364.69904	359.04785	1330.22986	418.08414	358.07162	1331.31250	371.50983	354.16669	1367.06104	98.13298	303.72815	1341.19006	108.82869	214.43121	1425.26709	74.26511	242.75005	1247.84338	48.94172	332.87402	1184.22961	72.32710	276.33426	1200.84290	31.33022	212.36444	1586.04004	1035.12524	181.59738	1401.40247	999.00848	73.53574	1461.34521	729.24341	15.15670	1453.53540	650.51404	24.33304	1449.62842	571.41449	25.55212	1377.26111	658.03510	41.57060	1452.88171	504.30960	37.92887	0.00000	0.00000	0.00000	1536.73181	473.16931	25.49065	1563.99780	437.19427	22.49710	0.00000	0.00000	0.00000	1524.83203	401.36877	29.66810	1784.08350	241.80592	90.34632	1758.73804	219.91393	178.13649	1830.21106	276.22235	165.10754	1743.17053	80.46888	162.84036	1720.09631	82.52074	107.08766	1772.96082	108.34326	51.85496
1009	4.03200	1576.88806	1040.88013	241.69455	1368.60437	1008.00330	308.63861	1397.97180	737.23059	387.43097	1377.92993	662.71826	366.71710	1359.72449	592.24426	360.97928	0.00000	0.00000	0.00000	1349.05908	543.44897	350.07913	1344.46899	535.13617	221.43640	1389.95178	410.91595	360.45828	1381.29248	364.66241	358.93680	1329.13171	417.91916	358.33643	1329.97656	371.39609	354.33368	1366.91333	98.16645	303.68381	1341.05847	108.83381	214.35475	1425.19666	74.27769	242.72720	1247.72119	48.90765	332.87845	1185.40723	71.23855	276.15936	1200.69934	30.09211	211.78874	1581.09180	1035.21082	182.04219	1396.78064	999.13751	73.82944	1454.61804	729.46265	15.34901	1446.18384	651.18658	24.59699	1441.12793	571.73346	25.65745	1369.92407	659.58386	41.04321	1443.90308	505.07410	37.67823	0.00000	0.00000	0.00000	1527.14087	474.25140	25.51007	1554.70508	438.46527	22.48592	0.00000	0.00000	0.00000	1515.75183	402.42749	29.76976	1776.26770	244.75426	90.41405	1750.84741	222.74416	178.06485	1822.50293	278.84467	165.63823	1736.44946	83.56812	162.13060	1711.64062	85.11710	106.50802	1766.07080	111.35500	52.28732
1010	4.03600	1572.22314	1041.15063	242.24121	1363.95422	1008.57684	308.95193	1395.21777	737.55670	387.30655	1374.95459	662.42572	367.08392	1356.67261	592.50800	361.12054	0.00000	0.00000	0.00000	1347.16809	543.66663	350.38126	1341.03760	535.55212	221.80394	1388.54114	411.15369	360.36276	1379.99951	364.80051	358.86462	1327.05701	417.61716	358.05493	0.00000	0.00000	0.00000	1366.79749	98.22277	303.64841	1340.87891	108.80728	214.26646	1425.19934	74.36122	242.71106	1247.68982	48.87787	332.88831	1185.35168	71.19437	276.01974	1200.59448	28.89317	211.20782	1576.50623	1035.36340	182.59207	1392.13745	999.30273	74.09132	1447.93201	729.76831	15.66091	1438.38867	651.24335	24.58966	1433.94055	572.87823	25.37045	1362.26831	660.14606	41.77396	1434.00684	505.40677	38.51290	0.00000	0.00000	0.00000	1517.53674	475.39114	25.64954	1545.37610	439.85342	22.59530	0.00000	0.00000	0.00000	1507.34375	403.24796	31.29089	1768.18469	247.42416	90.38087	1742.85681	225.43042	178.04630	1814.33911	281.76031	165.20233	1725.31152	86.05566	162.74913	1701.17566	89.18530	105.89199	1758.02417	114.16732	52.07063
1011	4.04000	1567.61938	1041.46411	242.78069	1359.19409	1009.12793	309.22110	1391.56140	737.60468	387.77380	1371.84009	662.21429	367.48816	1354.74487	592.10663	361.38992	0.00000	0.00000	0.00000	1344.51013	543.36328	350.50171	1345.65295	533.86182	222.02582	1387.18127	411.48593	360.24896	1378.90210	365.08197	358.82892	1325.47974	417.57016	358.47733	0.00000	0.00000	0.00000	1366.68225	98.27450	303.61087	1340.71631	108.84212	214.22874	1425.13660	74.42233	242.73695	1247.69946	48.87104	332.93811	1185.48145	70.90292	276.04593	1200.52710	27.73309	210.62189	1571.92273	1035.52588	183.19321	1387.59558	999.57611	74.22926	1441.34045	730.14020	15.96944	1430.90918	651.79572	24.79874	1425.49707	573.39850	25.61246	1356.24658	662.29260	40.95334	1424.96521	506.40283	38.37522	0.00000	0.00000	0.00000	1507.94885	476.65976	25.89481	1535.98792	441.28436	22.77240	0.00000	0.00000	0.00000	1497.55347	404.79727	30.26572	1759.96057	249.95058	90.38055	1734.73889	227.95372	178.03078	1806.27686	284.18103	165.14558	1719.29358	88.12997	161.42488	1694.20715	91.11064	106.02772	1749.56995	116.84466	51.87931
1012	4.04400	1562.97766	1041.78442	243.36691	1354.68994	1009.59717	309.54620	1388.14807	737.84076	388.14963	1368.57251	662.13141	367.63708	1351.66016	592.09155	361.60318	0.00000	0.00000	0.00000	1342.82019	543.64685	350.84521	1343.18384	533.90869	222.30193	1385.85120	411.80908	360.12833	1378.17566	365.56210	358.96710	1324.26587	417.57883	358.39023	0.00000	0.00000	0.00000	1366.57007	98.31944	303.59415	1340.56580	108.91003	214.20352	1425.12170	74.51479	242.75433	1247.69043	48.81004	332.99933	1185.10791	70.79291	276.02441	1200.49573	26.61141	210.03116	1567.38086	1035.80261	183.80278	1382.97131	999.86383	74.35265	1434.78638	730.62683	16.32507	1423.47937	652.40265	25.10732	1415.54016	573.23065	26.51149	1346.61389	661.47021	43.30486	1415.29565	506.79620	38.25137	1490.01367	405.65939	32.05340	1498.41064	478.02206	26.31373	1526.28516	442.91266	23.24761	0.00000	0.00000	0.00000	0.00000	0.00000	0.00000	1751.46228	252.29860	90.33801	1726.17981	229.84322	178.16113	1798.52795	286.32446	165.64917	1709.95471	90.46878	161.65948	1686.35632	93.23653	105.77495	1739.38159	118.99306	52.17874
1013	4.04800	1558.29749	1042.14697	243.97249	1350.02222	1010.12695	309.85709	1385.37927	738.50177	388.31979	1366.08423	662.28754	368.04800	1349.29065	592.41327	361.76337	0.00000	0.00000	0.00000	1340.26514	543.32501	351.01077	1341.02002	533.96771	222.55978	1384.59070	412.13837	360.07376	1377.01025	365.77197	358.97717	1322.95605	417.57455	358.66400	1325.27319	371.26978	355.33444	1366.48425	98.38063	303.60583	1340.27063	108.89014	214.43098	1425.10327	74.61481	242.80681	1247.66699	48.76574	333.06546	1185.03760	70.34517	276.14532	1200.49939	25.52776	209.43585	1562.81445	1036.13379	184.45448	1378.39807	1000.24744	74.45780	1428.25562	731.13318	16.75266	1416.03931	653.06714	25.46041	1407.13806	573.90533	26.92743	1339.29553	662.85248	43.49548	1406.36279	507.96054	38.10136	0.00000	0.00000	0.00000	1490.26135	479.94391	27.01036	0.00000	0.00000	0.00000	0.00000	0.00000	0.00000	1478.43970	415.98236	18.62569	1742.81348	254.51123	90.29547	1718.03052	232.58861	178.03914	1789.88025	288.40469	164.97682	1702.16711	93.49217	161.31087	1677.61890	95.11245	105.60319	1730.98535	121.65228	51.10044
